<svg xmlns="http://www.w3.org/2000/svg" viewBox="0 0 1024 1024">
<g transform="translate(0,1024) scale(0.1,-0.1)" fill="#ffffff" stroke="none">
<path d="M4340 7270 c-100 -17 -181 -62 -253 -139 -202 -216 -131 -560 142
-690 75 -35 78 -36 241 -42 153 -6 171 -9 252 -38 83 -31 188 -88 255 -139 31
-23 32 -25 18 -52 -19 -37 -19 -103 0 -140 l15 -29 -75 -47 c-157 -97 -258
-126 -460 -129 -124 -2 -159 -6 -203 -23 -149 -58 -250 -166 -286 -307 -55
-207 44 -415 241 -508 64 -30 75 -32 178 -32 103 0 114 2 177 32 109 52 202
152 244 263 12 32 19 94 24 215 7 195 26 267 106 410 69 122 62 116 117 98 42
-14 52 -14 92 -1 40 14 46 14 58 -1 32 -37 99 -163 128 -242 30 -78 32 -96 39
-259 5 -143 10 -185 27 -228 49 -122 129 -208 243 -260 79 -36 204 -42 297
-14 87 27 173 88 228 163 62 85 80 143 80 264 0 92 -3 106 -32 167 -53 112
-147 198 -261 240 -47 17 -83 21 -202 23 -100 1 -165 7 -210 19 -67 17 -267
111 -308 144 -22 17 -22 19 -8 47 20 38 20 98 1 135 -15 29 -15 30 26 60 74
53 164 99 260 131 83 28 112 33 250 39 146 6 160 9 223 38 315 148 357 580 73
763 -87 56 -149 72 -267 67 -85 -3 -105 -7 -166 -38 -81 -40 -161 -116 -197
-186 -45 -90 -56 -148 -56 -294 1 -107 -3 -151 -20 -215 -22 -83 -95 -239
-136 -289 -22 -27 -25 -28 -54 -17 -29 13 -94 11 -137 -4 -19 -6 -28 3 -67 67
-49 78 -99 193 -118 273 -7 28 -11 109 -11 185 1 97 -3 150 -14 190 -51 175
-170 289 -341 325 -74 16 -86 16 -153 5z"/>
<path d="M5583 4375 c-138 -30 -256 -124 -321 -254 -33 -67 -37 -83 -40 -171
-6 -153 28 -250 126 -352 181 -190 487 -194 673 -9 258 258 133 702 -222 786
-77 18 -133 18 -216 0z m244 -190 c92 -45 143 -128 151 -241 5 -87 -14 -152
-63 -218 -77 -100 -236 -133 -357 -73 -107 53 -163 144 -162 267 0 86 21 143
74 204 83 94 234 120 357 61z"/>
<path d="M3330 4363 c-21 -3 -31 -18 -62 -96 -20 -51 -98 -241 -172 -424 -74
-182 -137 -341 -141 -352 -6 -20 -3 -21 83 -21 60 0 93 4 99 13 6 6 25 49 44
95 l33 82 184 -2 185 -3 26 -70 c47 -122 39 -115 141 -115 50 0 90 3 90 7 0
22 -342 877 -354 885 -11 8 -110 8 -156 1z m131 -383 l57 -150 -57 -2 c-101
-4 -181 -3 -181 2 -1 12 114 300 119 300 3 0 31 -68 62 -150z"/>
<path d="M3935 4360 c-4 -6 11 -37 32 -68 22 -31 87 -127 146 -213 l106 -155
-150 -221 c-82 -122 -149 -224 -149 -227 0 -3 42 -6 93 -6 111 0 97 -11 222
173 47 70 89 127 93 127 4 0 19 -17 33 -38 14 -20 61 -88 105 -149 l79 -113
98 0 c56 0 97 4 97 10 0 5 -67 105 -150 222 -82 116 -150 218 -150 225 0 13
196 301 262 384 15 20 28 42 28 48 0 7 -34 11 -100 11 l-99 0 -98 -145 c-54
-80 -102 -144 -107 -142 -6 2 -53 66 -106 143 l-95 139 -92 3 c-59 2 -94 -1
-98 -8z"/>
<path d="M4933 4363 l-43 -4 0 -445 0 -444 84 0 c47 0 86 4 88 10 2 5 1 207
-2 447 l-5 438 -40 1 c-22 1 -59 -1 -82 -3z"/>
<path d="M6317 4363 c-4 -3 -7 -206 -7 -450 l0 -443 85 0 85 0 0 293 c1 227 3
288 12 272 7 -11 64 -141 128 -290 l117 -270 69 0 68 0 58 140 c124 299 172
410 180 420 4 5 8 -120 8 -278 l0 -288 88 3 87 3 -3 365 c-1 201 -2 402 -2
448 l0 82 -47 0 c-27 0 -78 -3 -115 -6 l-67 -7 -41 -101 c-62 -149 -211 -501
-214 -504 -2 -1 -60 132 -131 295 -70 164 -132 304 -137 311 -11 13 -209 18
-221 5z"/>
<path d="M3547 3143 l-28 -4 3 -76 c3 -83 24 -115 30 -46 3 35 5 38 33 38 44
0 46 19 3 23 -29 2 -38 7 -38 22 0 15 9 19 43 22 23 2 42 8 42 13 0 11 -44 15
-88 8z"/>
<path d="M3667 3143 c-4 -3 -7 -42 -7 -85 0 -59 3 -79 13 -76 6 3 13 19 15 37
3 28 6 32 25 27 12 -3 25 -6 28 -6 4 0 9 -13 13 -30 3 -18 12 -30 21 -30 12 0
14 7 9 28 -4 15 -10 31 -15 36 -4 5 -1 19 7 31 18 28 9 54 -23 66 -28 11 -77
12 -86 2z m88 -48 c0 -15 -8 -21 -32 -23 -30 -3 -33 -1 -33 23 0 24 3 26 33
23 24 -2 32 -8 32 -23z"/>
<path d="M3835 3125 c-34 -33 -34 -93 -2 -123 45 -42 119 -20 132 39 19 84
-72 143 -130 84z m85 -15 c24 -24 26 -57 4 -88 -31 -45 -84 -19 -84 42 0 26
31 66 50 66 6 0 19 -9 30 -20z"/>
<path d="M4000 3066 c0 -96 17 -118 22 -28 l3 57 18 -52 c18 -52 32 -71 44
-59 3 3 14 29 24 58 l18 53 1 -57 c0 -45 3 -58 15 -58 12 0 15 15 15 79 0 113
-32 122 -66 18 l-17 -51 -21 59 c-13 38 -27 61 -38 63 -16 3 -18 -6 -18 -82z"/>
<path d="M4273 3143 c-9 -3 -13 -30 -13 -84 l0 -79 45 0 c75 0 112 53 86 123
-13 34 -79 56 -118 40z m87 -42 c23 -44 -5 -101 -50 -101 -18 0 -20 7 -20 60
0 60 0 60 30 60 19 0 33 -7 40 -19z"/>
<path d="M4463 3140 c-28 -12 -43 -40 -43 -82 0 -48 31 -78 80 -78 53 0 84 38
77 94 -3 21 -11 45 -19 52 -18 18 -68 26 -95 14z m75 -45 c16 -35 15 -55 -5
-77 -21 -24 -60 -23 -73 1 -14 26 -13 74 2 89 22 22 64 14 76 -13z"/>
<path d="M4607 3143 c-14 -13 -7 -118 9 -141 17 -25 84 -31 102 -9 20 24 19
147 -1 147 -8 0 -11 -13 -9 -42 4 -54 -12 -98 -36 -98 -31 0 -42 22 -42 87 0
58 -6 73 -23 56z"/>
<path d="M4770 3066 l0 -86 41 0 c22 0 49 5 60 10 20 11 26 54 9 65 -6 3 -5
15 2 31 16 34 -6 55 -66 61 l-46 6 0 -87z m86 43 c9 -14 -5 -27 -36 -31 -20
-2 -25 2 -26 20 -1 18 4 22 27 22 15 0 31 -5 35 -11z m-8 -58 c25 -16 9 -46
-26 -49 -34 -3 -35 -1 -26 36 6 23 29 28 52 13z"/>
<path d="M4910 3135 c0 -9 9 -15 25 -15 24 0 25 -2 25 -70 0 -38 4 -70 9 -70
14 0 21 28 21 85 0 46 3 54 20 57 45 7 22 23 -37 26 -52 2 -63 0 -63 -13z"/>
<path d="M5110 3135 c0 -8 9 -15 20 -15 17 0 19 -8 22 -67 2 -42 8 -68 16 -71
9 -3 12 15 12 67 0 69 1 71 25 71 16 0 25 6 25 15 0 12 -13 15 -60 15 -47 0
-60 -3 -60 -15z"/>
<path d="M5283 3140 c-28 -12 -43 -40 -43 -84 0 -49 29 -76 79 -76 54 0 85 38
78 94 -3 21 -11 45 -19 52 -18 18 -68 26 -95 14z m81 -58 c17 -59 -39 -106
-78 -66 -39 38 -1 123 46 105 13 -5 27 -21 32 -39z"/>
<path d="M5505 3125 c-32 -31 -34 -96 -5 -125 36 -36 120 -17 120 28 0 19 -18
14 -30 -8 -12 -22 -49 -27 -68 -8 -7 7 -12 29 -12 50 0 28 6 41 24 53 25 17
51 12 60 -11 7 -18 26 -18 26 0 0 20 -39 46 -68 46 -12 0 -34 -11 -47 -25z"/>
<path d="M5657 3144 c-4 -4 -7 -43 -7 -86 l0 -79 55 3 c30 2 54 7 53 12 -2 6
-20 9 -40 7 -35 -2 -38 0 -38 23 0 21 5 25 38 28 46 4 44 23 -3 23 -29 0 -35
4 -35 22 0 19 6 22 43 25 23 2 42 8 42 13 0 12 -97 19 -108 9z"/>
<path d="M5807 3143 c-4 -3 -7 -42 -7 -85 0 -59 3 -79 13 -76 6 3 13 19 15 36
5 50 53 42 66 -10 3 -16 11 -28 16 -28 14 0 12 54 -2 69 -10 11 -10 14 0 18 6
3 12 18 12 34 0 22 -6 32 -26 39 -29 11 -78 13 -87 3z m83 -48 c0 -21 -5 -25
-30 -25 -16 0 -30 4 -30 9 0 5 -3 16 -6 25 -5 13 1 16 30 16 32 0 36 -3 36
-25z"/>
<path d="M5940 3134 c0 -8 8 -14 19 -14 19 0 31 -39 31 -108 0 -21 4 -32 12
-30 7 3 11 27 9 71 -2 66 -2 67 23 67 16 0 26 6 26 14 0 12 -14 15 -60 15 -45
-1 -60 -4 -60 -15z"/>
<path d="M6115 3141 c-3 -6 -17 -43 -31 -83 -25 -73 -23 -100 3 -60 21 30 79
31 88 2 3 -11 13 -20 21 -20 18 0 19 -7 -15 86 -27 74 -50 100 -66 75z m45
-97 c0 -2 -11 -4 -25 -4 -28 0 -30 6 -14 47 l11 28 14 -34 c8 -18 14 -35 14
-37z"/>
<path d="M6236 3143 c-3 -3 -6 -42 -6 -85 0 -63 3 -78 15 -78 12 0 15 15 15
79 0 74 -7 100 -24 84z"/>
<path d="M6295 3117 c-9 -48 -2 -130 12 -134 8 -3 13 14 15 52 l3 57 35 -54
c19 -29 43 -54 53 -56 15 -3 17 5 17 57 0 33 -5 72 -12 88 -12 27 -13 25 -18
-37 l-5 -65 -24 45 c-26 49 -50 80 -62 80 -4 0 -11 -15 -14 -33z"/>
<path d="M6453 3144 c-24 -10 -13 -24 17 -24 l30 0 0 -70 c0 -38 4 -70 9 -70
9 0 21 57 21 107 0 24 5 32 20 35 12 2 21 8 21 13 -1 11 -97 18 -118 9z"/>
<path d="M6590 3140 c0 -6 9 -28 20 -50 11 -22 20 -55 20 -75 0 -24 4 -35 15
-35 10 0 15 10 15 30 0 16 14 52 30 80 34 58 35 60 17 60 -8 0 -22 -16 -33
-35 -10 -19 -21 -35 -24 -35 -4 0 -14 16 -23 35 -16 33 -37 47 -37 25z"/>
</g>
</svg>