<svg xmlns="http://www.w3.org/2000/svg" viewBox="340 230 370 390">
<g transform="translate(0,1024) scale(0.1,-0.1)" fill="#2C3E50" stroke="none">
<path d="M4340 7270 c-100 -17 -181 -62 -253 -139 -202 -216 -131 -560 142
-690 75 -35 78 -36 241 -42 153 -6 171 -9 252 -38 83 -31 188 -88 255 -139 31
-23 32 -25 18 -52 -19 -37 -19 -103 0 -140 l15 -29 -75 -47 c-157 -97 -258
-126 -460 -129 -124 -2 -159 -6 -203 -23 -149 -58 -250 -166 -286 -307 -55
-207 44 -415 241 -508 64 -30 75 -32 178 -32 103 0 114 2 177 32 109 52 202
152 244 263 12 32 19 94 24 215 7 195 26 267 106 410 69 122 62 116 117 98 42
-14 52 -14 92 -1 40 14 46 14 58 -1 32 -37 99 -163 128 -242 30 -78 32 -96 39
-259 5 -143 10 -185 27 -228 49 -122 129 -208 243 -260 79 -36 204 -42 297
-14 87 27 173 88 228 163 62 85 80 143 80 264 0 92 -3 106 -32 167 -53 112
-147 198 -261 240 -47 17 -83 21 -202 23 -100 1 -165 7 -210 19 -67 17 -267
111 -308 144 -22 17 -22 19 -8 47 20 38 20 98 1 135 -15 29 -15 30 26 60 74
53 164 99 260 131 83 28 112 33 250 39 146 6 160 9 223 38 315 148 357 580 73
763 -87 56 -149 72 -267 67 -85 -3 -105 -7 -166 -38 -81 -40 -161 -116 -197
-186 -45 -90 -56 -148 -56 -294 1 -107 -3 -151 -20 -215 -22 -83 -95 -239
-136 -289 -22 -27 -25 -28 -54 -17 -29 13 -94 11 -137 -4 -19 -6 -28 3 -67 67
-49 78 -99 193 -118 273 -7 28 -11 109 -11 185 1 97 -3 150 -14 190 -51 175
-170 289 -341 325 -74 16 -86 16 -153 5z"/>
</g>
</svg>